<svg id="Layer_1" data-name="Layer 1" xmlns="http://www.w3.org/2000/svg" viewBox="0 0 342.28 428.17"><title>logoPurple2</title><path d="M63.91,393.42a71.71,71.71,0,0,1-17.2.45,41.78,41.78,0,0,1-8.48-1.69,23.08,23.08,0,0,1-7.71-4,15.38,15.38,0,0,1-4.93-7.23,21,21,0,0,1-.71-8.74c.69-5.84,2.88-11.32,5.41-16.5l0-.05a36.46,36.46,0,0,1,4.81-5.85,49.42,49.42,0,0,1,5.69-4.93,51.69,51.69,0,0,1,13.27-7,57.44,57.44,0,0,1,14.7-3.11,69,69,0,0,1,15,.42l.42.14a69.13,69.13,0,0,1,13.84,10.67,46,46,0,0,1,10.09,14.39A29,29,0,0,1,110,378a38.93,38.93,0,0,1-8.12,15.74A89.37,89.37,0,0,1,89.52,406q-3.33,2.79-6.82,5.36c-1.16.87-2.31,1.7-3.47,2.53a36.19,36.19,0,0,0-3.07,2.67c-.48.48-.94,1-1.34,1.45a4.78,4.78,0,0,0-.8,1.24s0,0,0-.08a.8.8,0,0,0-.21-.46c-.25-.22-.16-.1,0-.09a6.67,6.67,0,0,0,1.69-.06,51.43,51.43,0,0,0,8-2.1c5.36-1.79,10.67-3.89,15.94-6.05l-.18.08c2-1.06,4-1.93,6-2.78,1-.43,2-.83,3-1.22s2-.78,3-1.14c4.06-1.5,8.2-2.75,12.35-3.93a223.21,223.21,0,0,1,25.28-5.36l6.4-.9c2.13-.27,4.28-.47,6.42-.71s4.28-.42,6.43-.56l3.22-.23,1.61-.11c.55,0,1.12-.06,1.68-.06,1.12,0,2.23,0,3.32.07a26.61,26.61,0,0,0,3,.09,17.84,17.84,0,0,0,5.68-1.15,16,16,0,0,0,8.34-7.68L195,385c2.43-5.91,5.13-11.62,8.09-17.25a129.28,129.28,0,0,1,10-16.27,58.73,58.73,0,0,1,6.34-7.35,32.67,32.67,0,0,1,3.81-3.19,21.79,21.79,0,0,1,2.17-1.34,9.07,9.07,0,0,1,2.62-1,9.27,9.27,0,0,1,9.89,4.21,8.88,8.88,0,0,1,1,2.68,12.61,12.61,0,0,1-.93,7.9,17.19,17.19,0,0,1-1.27,2.3l-1.35,2-2.65,3.88q-2.62,3.92-5.19,7.85-5.15,7.89-10,15.94a286.73,286.73,0,0,0-17.76,33.07c-1.24,2.86-2.39,5.75-3.36,8.69a44.09,44.09,0,0,0-2.08,8.91l-.08,1.1a2.8,2.8,0,0,0,.08.87,3.16,3.16,0,0,0,.8,1.52,3.7,3.7,0,0,0,3.23,1.19A3.5,3.5,0,0,0,200,440a17.74,17.74,0,0,0,1.7-1.44,27.87,27.87,0,0,0,3-3.4,39.58,39.58,0,0,0,2.51-3.84c.75-1.29,1.48-2.77,2.32-4.13a76.36,76.36,0,0,1,5.48-7.84,73.16,73.16,0,0,1,13.67-13.28,62,62,0,0,1,16.81-8.92A58.56,58.56,0,0,1,264.23,394a63.84,63.84,0,0,1,9.47.63,64,64,0,0,0,9.34.93,33.3,33.3,0,0,0,9.29-1,14.59,14.59,0,0,0,4.25-1.88,8.66,8.66,0,0,0,3.05-3.44l.18.08a9,9,0,0,1-3.09,3.57,15.12,15.12,0,0,1-4.31,1.95,33.24,33.24,0,0,1-9.37,1.08,62.91,62.91,0,0,1-9.4-.84,64.26,64.26,0,0,0-9.4-.53,58.12,58.12,0,0,0-18.47,3.3,61.25,61.25,0,0,0-16.49,9,75.63,75.63,0,0,0-18.71,21c-.83,1.34-1.5,2.75-2.29,4.12a40.18,40.18,0,0,1-2.57,4,27.81,27.81,0,0,1-3.11,3.58,20.42,20.42,0,0,1-1.8,1.55,4.8,4.8,0,0,1-2.21.94,5.06,5.06,0,0,1-4.39-1.57,4.56,4.56,0,0,1-1.13-2.12,7.39,7.39,0,0,1,0-2.39,45.29,45.29,0,0,1,2.09-9.22c1-3,2.11-5.94,3.35-8.83a291.28,291.28,0,0,1,17.66-33.37q4.86-8.08,10-16,2.56-4,5.19-7.88l2.65-3.91a24.54,24.54,0,0,0,2.46-4,11.17,11.17,0,0,0,1-4.5,8.58,8.58,0,0,0-1.07-4.45,7.49,7.49,0,0,0-8-3.36,12.16,12.16,0,0,0-4.13,2.07,30.28,30.28,0,0,0-3.59,3,57,57,0,0,0-6.12,7.13,127.38,127.38,0,0,0-9.84,16.06q-4.38,8.36-8,17.08v0a19.51,19.51,0,0,1-3.87,5.15,17,17,0,0,1-5.45,3.45,19.57,19.57,0,0,1-6.32,1.3c-1.08.05-2.16,0-3.22-.08s-2.13-.08-3.19-.07c-8.52.47-17,1.24-25.49,2.53a220.57,220.57,0,0,0-25.07,5.26c-4.11,1.16-8.21,2.39-12.22,3.86a101.55,101.55,0,0,0-11.77,5h0c-5.3,2.17-10.63,4.27-16.08,6.07a51.44,51.44,0,0,1-8.33,2.15,8.88,8.88,0,0,1-2.19.06,1.87,1.87,0,0,1-1.07-.47,1.2,1.2,0,0,1-.19-1.17,5.93,5.93,0,0,1,1.14-1.89,18.44,18.44,0,0,1,1.48-1.58,36.62,36.62,0,0,1,3.26-2.82c1.16-.84,2.33-1.67,3.47-2.52,2.3-1.71,4.56-3.46,6.76-5.29a88.06,88.06,0,0,0,12.16-12c3.58-4.42,6.59-9.45,7.86-15a27.48,27.48,0,0,0-1.69-16.71,44.51,44.51,0,0,0-9.7-14,67.55,67.55,0,0,0-13.47-10.51h.05a67.75,67.75,0,0,0-14.72-.49,56,56,0,0,0-14.42,3,51.21,51.21,0,0,0-13,6.8,43.72,43.72,0,0,0-10.36,10.4h0c-2.56,5.1-4.77,10.49-5.49,16.17a20.18,20.18,0,0,0,.59,8.47,14.8,14.8,0,0,0,4.68,7,22.63,22.63,0,0,0,7.49,4,42.78,42.78,0,0,0,8.38,1.76,71.15,71.15,0,0,0,17.13-.28Z" transform="translate(-24.72 -31)"/><path d="M113.94,354.77C108,368,96.05,381,73.67,390.42l0,0-.14.05c-1.19.5-2.41,1-3.66,1.45h0c-.87.33-1.75.65-2.64,1l-.61.22a5.32,5.32,0,0,0,.58-.43c2.63-2.11,12.44-12,2.2-35.88a53.68,53.68,0,0,1-2-34.31,56.52,56.52,0,0,1,5.35-13,24.59,24.59,0,0,1,21.37-12.51,25,25,0,0,1,4,.34l.27,0A24.56,24.56,0,0,1,118.31,318C119.85,328.18,119.86,341.58,113.94,354.77Z" transform="translate(-24.72 -31)" style="fill:#7c3aed"/><path d="M366.43,264.07a690.49,690.49,0,0,0-5.73-69.52,393.13,393.13,0,0,0-14-64.36q-9.46-30.33-25.51-52.93A113.67,113.67,0,0,0,281.3,42.08q-17.54-9.28-40.24-10.79a142.33,142.33,0,0,0-16.81-.08q-26.37,1.14-45.87,16a143.41,143.41,0,0,0-33.52,36.62,264.14,264.14,0,0,0-23.8,46.35q-9.77,24.6-16,45.77c-1,3-1.87,6-2.76,9.08q-5.61,19.1-9.74,38.43-2.85,13.23-5,26.58-1.78,11.07-3.28,22.22a20.6,20.6,0,0,0,15.5,22.8h0a20.69,20.69,0,0,0,4.84.57,16.69,16.69,0,0,0,11-4.15,16.89,16.89,0,0,0,5.61-10.4.77.77,0,0,1,0-.15Q124.39,258.35,129,236q1.13-5.81,2.59-12.56,3-13.87,7.42-31.78c.54-2.22,1.12-4.44,1.7-6.65a372.43,372.43,0,0,1,15.18-45.12A187.05,187.05,0,0,1,181.63,95q15.44-19.74,37.18-24.89,3.42-.78,6.72-1.25h0q15.93-2.28,28.74,2.69a64.78,64.78,0,0,1,26.32,18.89A117.47,117.47,0,0,1,298.92,121a268.68,268.68,0,0,1,12.29,36.62,337,337,0,0,1,7.44,37.19q2.58,18.32,3.72,31.47a917.58,917.58,0,0,1,4,107.28q-1.15,53.49-4,107.27-.57,9.17,5.24,13.73a20.65,20.65,0,0,0,8.56,4.11,21.44,21.44,0,0,0,4.49.47A21.74,21.74,0,0,0,354,454.59q6.09-4.56,6.67-13.73,1.14-19.44,2.86-47.49t2.87-60.93Q367.57,299.54,366.43,264.07Z" transform="translate(-24.72 -31)" style="fill:#7c3aed"/><path d="M262.76,204.08a11.36,11.36,0,0,1-2.45,7l0,.06c-1.67,2.18-4.17,3.27-7.48,3.27s-5.82-1.09-7.48-3.27a11.06,11.06,0,0,1,0-14,7.92,7.92,0,0,1,4.67-3,11.8,11.8,0,0,1,2.81-.31c3.31,0,5.81,1.09,7.48,3.27A11.43,11.43,0,0,1,262.76,204.08Z" transform="translate(-24.72 -31)" style="fill:#7c3aed"/><path d="M234.37,204.26a19.08,19.08,0,0,1-2.88,10.11,18.83,18.83,0,0,1-2.75,3.47,19.15,19.15,0,0,1-13.59,5.63H44.2a19.21,19.21,0,0,1-3.31-38.14A19,19,0,0,1,44.2,185h171A19.21,19.21,0,0,1,234.37,204.26Z" transform="translate(-24.72 -31)" style="fill:#7c3aed"/><path d="M89.67,360.4s9,17.78-19.85,31.55h0c-.87.33-1.75.65-2.64,1l-.61.22a5.32,5.32,0,0,0,.58-.43c2.63-2.11,12.44-12,2.2-35.88a53.68,53.68,0,0,1-2-34.31,56.52,56.52,0,0,1,5.35-13,24.59,24.59,0,0,1,21.37-12.51,25,25,0,0,1,4,.34C95.61,301,75.25,331.56,89.67,360.4Z" transform="translate(-24.72 -31)" style="fill:#6038ce"/><path d="M99.76,295.07h0a20.6,20.6,0,0,1-15.5-22.8q1.5-11.14,3.28-22.22,2.15-13.35,5-26.58h39.07C72.78,225.9,99.76,295.07,99.76,295.07Z" transform="translate(-24.72 -31)" style="fill:#6038ce"/><path d="M140.7,185H102.25c.89-3,1.81-6.06,2.76-9.08q6.3-21.17,16-45.77a264.14,264.14,0,0,1,23.8-46.35,143.41,143.41,0,0,1,33.52-36.62q19.51-14.86,45.87-16a142.33,142.33,0,0,1,16.81.08C111.06,48.92,140.7,185,140.7,185Z" transform="translate(-24.72 -31)" style="fill:#6038ce"/><path d="M339.72,287.05,336.17,458.7a20.65,20.65,0,0,1-8.56-4.11q-5.82-4.56-5.24-13.73,2.86-53.78,4-107.27a917.58,917.58,0,0,0-4-107.28q-1.14-13.16-3.72-31.47a337,337,0,0,0-7.44-37.19A268.68,268.68,0,0,0,298.92,121a117.47,117.47,0,0,0-18.31-30.6,64.78,64.78,0,0,0-26.32-18.89q-12.81-5-28.74-2.69C227.21,68.25,337.74,29.62,339.72,287.05Z" transform="translate(-24.72 -31)" style="fill:#6038ce"/><path d="M231.49,214.37a18.83,18.83,0,0,1-2.75,3.47,19.15,19.15,0,0,1-13.59,5.63H44.2a19.21,19.21,0,0,1-3.31-38.14s-22.56,36.38,24.78,29c0,0,76.68-13.33,110-10C175.69,204.37,220.61,207,231.49,214.37Z" transform="translate(-24.72 -31)" style="fill:#6038ce"/><path d="M260.31,211l0,.06c-1.67,2.18-4.17,3.27-7.48,3.27s-5.82-1.09-7.48-3.27a11.06,11.06,0,0,1,0-14,7.92,7.92,0,0,1,4.67-3C249.81,194.55,242.6,213,260.31,211Z" transform="translate(-24.72 -31)" style="fill:#6038ce"/></svg>